<?xml version="1.0" ?><svg id="Layer_1" style="enable-background:new 0 0 512 512;" version="1.1" viewBox="0 0 512 512" xml:space="preserve" xmlns="http://www.w3.org/2000/svg" xmlns:xlink="http://www.w3.org/1999/xlink"><style type="text/css">
	.st0{fill:#FFFFFF;}
	.st1{fill:#232323;}
	.st2{fill:#14748A;}
</style><g id="XMLID_59_"><g id="XMLID_177_"><path class="st0" d="M418.6,418.6C375.2,462.1,317.4,486,256,486s-119.2-23.9-162.6-67.4    C49.9,375.2,26,317.4,26,256S49.9,136.8,93.4,93.4C136.8,49.9,194.6,26,256,26s119.2,23.9,162.6,67.4    C462.1,136.8,486,194.6,486,256S462.1,375.2,418.6,418.6z" id="XMLID_181_"/><path class="st1" d="M256,6C117.9,6,6,117.9,6,256s111.9,250,250,250s250-111.9,250-250S394.1,6,256,6z     M418.6,418.6C375.2,462.1,317.4,486,256,486s-119.2-23.9-162.6-67.4C49.9,375.2,26,317.4,26,256S49.9,136.8,93.4,93.4    C136.8,49.9,194.6,26,256,26s119.2,23.9,162.6,67.4C462.1,136.8,486,194.6,486,256S462.1,375.2,418.6,418.6z" id="XMLID_178_"/></g><g id="XMLID_58_"><rect class="st2" height="22" id="XMLID_176_" width="291.1" x="110.4" y="272.6"/><g id="XMLID_54_"><g id="XMLID_357_"><path class="st1" d="M143.8,370.2l4.8-46.2h48.3v14.8h-32.8L162,356c1.5-1.1,3.5-2,5.9-2.7      c2.4-0.7,5-1.1,7.8-1.1c7.7-0.2,13.6,2.2,17.7,7.1c4.1,4.9,6.2,11.7,6.2,20.6c0,8-2.3,14.6-6.9,19.9c-4.6,5.3-11.9,7.9-21.8,7.9      c-7.9,0-14.7-2.1-20.5-6.2c-5.8-4.1-8.6-9.6-8.4-16.4l0.1-0.3l18.8-1.1c0,2.9,0.9,5.2,2.7,6.9c1.8,1.7,4.3,2.5,7.3,2.5      c3.5,0,6-1.1,7.4-3.2c1.4-2.2,2.1-5.4,2.1-9.7c0-4.5-0.8-8.1-2.4-10.7c-1.6-2.6-4.2-3.9-7.7-3.9c-2.5,0-4.6,0.5-6.1,1.6      c-1.6,1.1-2.7,2.5-3.3,4.1L143.8,370.2z" id="XMLID_367_"/><path class="st1" d="M275.2,376.2c0,9.9-2.6,17.6-7.9,23.1c-5.3,5.6-12.2,8.4-20.8,8.4      c-8.7,0-15.7-2.8-20.9-8.4c-5.3-5.6-7.9-13.3-7.9-23.1v-21.9c0-9.9,2.6-17.6,7.8-23.1c5.2-5.6,12.2-8.4,20.8-8.4      c8.6,0,15.6,2.8,20.8,8.4c5.3,5.6,7.9,13.3,7.9,23.1V376.2z M256.1,353c0-5-0.9-8.9-2.6-11.5c-1.7-2.6-4.1-4-7.1-4      c-3.1,0-5.4,1.3-7.1,4c-1.7,2.6-2.5,6.5-2.5,11.5v24.4c0,5.1,0.8,9,2.5,11.6c1.7,2.6,4.1,3.9,7.2,3.9c3,0,5.4-1.3,7.1-3.9      c1.7-2.6,2.5-6.5,2.5-11.6V353z" id="XMLID_364_"/><path class="st1" d="M293.9,339.9c0-4.9,1.6-9,4.8-12.2s7.7-4.8,13.5-4.8c5.9,0,10.5,1.6,13.7,4.8      c3.2,3.2,4.8,7.3,4.8,12.2v4.4c0,4.9-1.6,9-4.8,12.2c-3.2,3.2-7.7,4.8-13.5,4.8c-5.9,0-10.4-1.6-13.6-4.8      c-3.2-3.2-4.8-7.3-4.8-12.1V339.9z M314.9,400.3l-8.9-4.5l40.3-64.5l8.9,4.5L314.9,400.3z M306.1,344.2c0,1.9,0.5,3.5,1.6,4.7      c1.1,1.3,2.6,1.9,4.6,1.9c1.9,0,3.4-0.6,4.4-1.9c1-1.3,1.6-2.8,1.6-4.7v-4.4c0-1.9-0.5-3.5-1.6-4.8c-1.1-1.3-2.6-2-4.5-2      c-1.9,0-3.4,0.7-4.5,2c-1.1,1.3-1.6,2.9-1.6,4.8V344.2z M333.1,386.3c0-4.9,1.6-8.9,4.8-12.2c3.2-3.2,7.7-4.8,13.6-4.8      c5.9,0,10.5,1.6,13.6,4.8c3.2,3.2,4.7,7.3,4.7,12.2v4.4c0,4.9-1.6,9-4.7,12.2c-3.2,3.2-7.7,4.8-13.5,4.8      c-5.9,0-10.5-1.6-13.7-4.8c-3.2-3.2-4.8-7.3-4.8-12.2V386.3z M345.3,390.6c0,1.8,0.6,3.4,1.8,4.7c1.2,1.3,2.7,2,4.4,2      c2.3,0,3.9-0.6,4.8-1.8c0.8-1.2,1.2-2.8,1.2-4.9v-4.4c0-1.8-0.5-3.4-1.6-4.7c-1.1-1.3-2.6-2-4.5-2c-2,0-3.5,0.7-4.5,2      c-1.1,1.3-1.6,2.9-1.6,4.7V390.6z" id="XMLID_358_"/></g><g id="XMLID_52_"><rect class="st2" height="146.1" id="XMLID_57_" width="40.2" x="288.2" y="104.3"/><rect class="st2" height="73.1" id="XMLID_56_" width="40.2" x="183.6" y="177.4"/><rect class="st2" height="109.6" id="XMLID_55_" width="40.2" x="235.9" y="140.8"/></g></g></g></g></svg>